<svg class="t" xmlns="http://www.w3.org/2000/svg" fill="transparent" viewBox="0 0 24 24">
    <path fill="transparent" d="M0 0h24v24H0z"></path>
    <path stroke="#fff" stroke-width=".8" stroke-linecap="round" stroke-linejoin="round"
        d="M11.5245 4.4635c.1496-.4606.8014-.4606.951 0l1.4329 4.4099a.5.5 0 0 0 .4755.3454h4.6368c.4843 0 .6857.6199.2939.9046l-3.7513 2.7254a.5.5 0 0 0-.1816.559l1.4328 4.4098c.1497.4607-.3775.8437-.7694.559l-3.7512-2.7254a.5.5 0 0 0-.5878 0l-3.7512 2.7254c-.3919.2847-.9191-.0983-.7694-.559l1.4328-4.4098a.5.5 0 0 0-.1816-.559l-3.7513-2.7254c-.3918-.2847-.1904-.9046.294-.9046H9.616a.5.5 0 0 0 .4755-.3454l1.4329-4.4099Z">
    </path>
    <style>
        .t path,
        .t {
            fill: none;
        }
    </style>
</svg>