<svg xmlns="http://www.w3.org/2000/svg" xml:space="preserve" fill="none" viewBox="0 0 100.642 100.642">
    <path fill="#000"
        d="M25.95 41.827 9.606 30.902a.664.664 0 0 0-1.03.551v19.859c0 .221.11.428.294.55l16.345 10.926a.67.67 0 0 0 .68.033.662.662 0 0 0 .35-.583v-19.86a.665.665 0 0 0-.295-.551zM25.95 66.989 9.606 56.064a.66.66 0 0 0-1.03.55v19.858c0 .222.11.429.294.552L25.215 87.95a.662.662 0 0 0 1.03-.55V67.54a.666.666 0 0 0-.295-.551zM45.571 53.4l-16.344-9.932a.662.662 0 0 0-1.006.566v19.859c0 .221.11.427.294.551l16.344 10.925a.662.662 0 0 0 1.03-.551V53.966a.666.666 0 0 0-.318-.566zM45.594 79.57 29.25 68.646a.66.66 0 0 0-1.03.55v19.859c0 .222.11.428.294.551l16.344 10.926a.664.664 0 0 0 .68.033.663.663 0 0 0 .35-.584V80.12c0-.22-.11-.427-.294-.55zM84.82 30.872a.66.66 0 0 0-.673.021L67.405 41.487a.66.66 0 0 0-.308.572l.396 20.19a.662.662 0 0 0 1.03.538l16.345-10.926a.659.659 0 0 0 .294-.55V31.452a.662.662 0 0 0-.342-.58zM84.812 56.03a.66.66 0 0 0-.68.034L67.788 66.989a.66.66 0 0 0-.295.55v19.86a.663.663 0 0 0 1.031.55l16.345-10.926a.663.663 0 0 0 .294-.552V56.614a.665.665 0 0 0-.351-.584zM65.181 43.456a.666.666 0 0 0-.67.011l-16.343 9.932a.66.66 0 0 0-.319.565v20.854a.661.661 0 0 0 1.031.551l16.344-10.925a.663.663 0 0 0 .295-.551v-19.86a.661.661 0 0 0-.338-.577zM44.429 29.796a.663.663 0 0 0-.324-.585l-15.337-9.11a.662.662 0 0 0-.633-.023l-17.108 8.498a.661.661 0 0 0-.061 1.151l15.285 9.724a.668.668 0 0 0 .666.026l17.161-9.111a.663.663 0 0 0 .351-.57zM31.051 19.967l14.987 8.73a.668.668 0 0 0 .649.01l16.167-8.779a.662.662 0 0 0-.02-1.175l-15.007-7.455a.662.662 0 0 0-.573-.008l-16.148 7.504a.66.66 0 0 0-.055 1.173zM63.2 41.065a.662.662 0 0 0-.351-.574l-16.152-8.614a.661.661 0 0 0-.626.002l-15.995 8.664a.66.66 0 0 0-.347.578.667.667 0 0 0 .339.583l16.244 9.061a.653.653 0 0 0 .653-.004l15.903-9.11a.664.664 0 0 0 .332-.586zM91.945.28a.661.661 0 0 0-.611-.277L73.132 1.971a.661.661 0 0 0-.517.354l-8.349 16.162a.661.661 0 0 0 .649.963l18.526-1.649a.664.664 0 0 0 .537-.37L92 .95a.664.664 0 0 0-.055-.67zM65.169 68.611a.661.661 0 0 0-.681.034L48.144 79.57a.66.66 0 0 0-.295.55v19.86a.662.662 0 0 0 1.031.551l16.344-10.926a.661.661 0 0 0 .295-.551V69.195a.664.664 0 0 0-.35-.584z" />
    <style>
        path {
            fill: #d2d2d2;
        }

        @media (prefers-color-scheme: dark) {
            path {
                fill: #191919;
            }
        }
    </style>
</svg>